# xmcd
#
# Track frame offsets:
#	150
#	19758
#	50824
#	75240
#	101370
#	124781
#	151853
#	176623
#	195357
#	211251
#	240759
#	262656
#	289356
#	315358
#	325275
#
# Disc length: 4409 seconds
#
# Revision: 1
# Processed by: cddbd v1.5.2PL0 Copyright (c) Steve Scherf et al.
# Submitted via: audiograbber 1.83.01
#
DISCID=b511370f
DTITLE=Tony McPhee - Live In Poland At Blues Express
DYEAR=2000
DGENRE=Blues
TTITLE0=32-20
TTITLE1=No Place To Go
TTITLE2=No Mo Doggin
TTITLE3=Evil
TTITLE4=Garden
TTITLE5=Mistreated
TTITLE6=Dimpless
TTITLE7=Sitting On Top Of The World
TTITLE8=Cant Be Satisfied
TTITLE9=Groudhog Blues
TTITLE10=Little Red Rooster
TTITLE11=Drop Down Mama
TTITLE12=Write Me Few Short Lines
TTITLE13=Old Polish Blues Song
TTITLE14=The Grand Finale
EXTD=
EXTT0=
EXTT1=
EXTT2=
EXTT3=
EXTT4=
EXTT5=
EXTT6=
EXTT7=
EXTT8=
EXTT9=
EXTT10=
EXTT11=
EXTT12=
EXTT13=
EXTT14=
PLAYORDER=
